<svg id="Layer_1" data-name="Layer 1" xmlns="http://www.w3.org/2000/svg" viewBox="0 0 435.36 435.36"><defs><style>.cls-1{fill:#66545e;}.cls-2{fill:#f4e0b5;}</style></defs><rect class="cls-1" width="435.36" height="435.36" rx="42.26"/><path class="cls-2" d="M378.61,192.25c-10.22-34.24-29.24-61.58-62-77.72-26.13-12.9-54.07-15.84-82.68-12.63-49.26,5.54-83.92,30.88-100.72,77.93C117.45,224.06,117.53,269.15,131,314c8.85,29.51,25.85,53.34,53.08,68.9,21.41,12.22,44.83,16.41,79.46,16.41,24.63.11,55.74-9.18,80.68-35.21,33.46-34.91,32.93-99.09-21.91-124.81-3.19-1.49-4.2-3.3-4.44-6.61a79.46,79.46,0,0,0-7.43-28.93c-11.1-23-30.46-32.68-55-33.32-22.28-.58-41.22,6.82-55.17,25-1.76,2.29-1.61,3.45.75,5,5.1,3.3,10.19,6.66,15,10.32,2.73,2.07,4.11,1.62,6.3-.91,11.28-13,26-14.93,41.86-12,15.08,2.82,22.76,13.06,26.4,27.28,1,4-.15,4.49-3.6,3.95a153.92,153.92,0,0,0-35.89-.9A73.43,73.43,0,0,0,217.21,239c-23,14.38-29.48,44.65-14,66.76,10.46,14.92,25.86,21.44,43.51,22.58,24.26,1.57,44.8-5.63,58.58-27,6.07-9.38,9.33-19.88,11.06-30.86.5-3.21,1.12-4.29,4.38-2A47.47,47.47,0,0,1,340,317.84c-5,22.83-20.21,37.12-40.46,46.47-19.66,9.07-40.7,10.05-61.86,7.86-40.78-4.22-68.83-25.11-81.48-64.61-11.85-37-11.85-74.47-1.09-111.67,9.3-32.14,29.2-54.84,62.26-64a130.19,130.19,0,0,1,73.93.88c22.65,6.89,40,20.66,51.69,41.45a119,119,0,0,1,10.29,24.45c.58,2,1,3.3,3.55,2.54,6.47-1.88,13-3.58,19.51-5.22C378.49,195.41,379.35,194.71,378.61,192.25Zm-86.7,67.32c-1.28,9.13-2.9,18.13-7.6,26.28-4.42,7.62-10.76,12.74-19.34,14.82-10.5,2.56-20.9,2.41-30.81-2.26-7.58-3.57-12.75-9.21-13.2-18.08s3.89-15.36,11.28-19.87c8.11-4.94,17.25-6,26.47-6.46,2.29-.12,4.59,0,6.9,0,7.74-.22,15.38.83,23,1.92C290.83,256.21,292.3,256.76,291.91,259.57Z" transform="translate(-32.32 -32.32)"/></svg>